<svg width="900" height="900" viewBox="0 0 900 900" fill="none" xmlns="http://www.w3.org/2000/svg">
<rect width="900" height="900" fill="#D9D9D9"/>
<path d="M422.125 487.705H482.261L503.977 514.989L540.727 556.75L588.614 614.659H520.125L486.159 575.125L463.33 542.273L422.125 487.705ZM588.057 450.955C588.057 482.693 581.885 509.467 569.543 531.276C557.2 552.991 540.542 569.464 519.568 580.693C498.595 591.83 475.208 597.398 449.409 597.398C423.424 597.398 399.945 591.783 378.972 580.554C358.091 569.232 341.479 552.713 329.136 530.997C316.886 509.188 310.761 482.508 310.761 450.955C310.761 419.216 316.886 392.489 329.136 370.773C341.479 348.964 358.091 332.491 378.972 321.355C399.945 310.126 423.424 304.511 449.409 304.511C475.208 304.511 498.595 310.126 519.568 321.355C540.542 332.491 557.2 348.964 569.543 370.773C581.885 392.489 588.057 419.216 588.057 450.955ZM508.432 450.955C508.432 433.879 506.158 419.494 501.611 407.801C497.156 396.015 490.521 387.106 481.705 381.074C472.981 374.949 462.216 371.886 449.409 371.886C436.602 371.886 425.791 374.949 416.974 381.074C408.251 387.106 401.616 396.015 397.068 407.801C392.614 419.494 390.386 433.879 390.386 450.955C390.386 468.03 392.614 482.461 397.068 494.247C401.616 505.94 408.251 514.849 416.974 520.974C425.791 527.007 436.602 530.023 449.409 530.023C462.216 530.023 472.981 527.007 481.705 520.974C490.521 514.849 497.156 505.94 501.611 494.247C506.158 482.461 508.432 468.03 508.432 450.955Z" fill="#0EA5E9"/>
</svg>
